<svg width="195" height="136" viewBox="0 0 195 136" fill="none" xmlns="http://www.w3.org/2000/svg">
<path d="M89.6999 36.0128C75.3869 38.6784 65.3639 48.416 66.4559 58.5616C66.8069 62.016 68.9909 66.2592 71.9159 69.2512C73.3199 70.72 77.7659 73.848 79.7549 74.8C82.6409 76.1872 86.8919 77.52 90.1679 78.1184C94.4969 78.88 102.999 78.7168 106.86 77.8192C113.88 76.1872 119.808 73.1952 123.201 69.5776C125.424 67.184 124.683 66.9664 121.524 69.0336C118.56 70.9376 114.933 72.4336 111.228 73.2496C107.289 74.12 101.049 74.0384 97.1489 73.0592C88.9199 71.0192 83.3429 66.6128 81.1199 60.4112C80.2619 58.072 80.1449 56.168 80.7689 54.0736C81.8609 50.4288 83.7719 47.7904 87.1649 45.2064C96.2129 38.4064 111.267 38.1888 121.173 44.7168C122.772 45.7504 124.176 46.512 124.293 46.4032C125.307 45.696 119.457 41.0448 114.855 38.9232C109.044 36.2304 104.715 35.36 97.3829 35.36C94.1069 35.3872 92.1959 35.5504 89.6999 36.0128ZM105.963 37.0192C108.888 37.6448 113.061 39.0864 114.855 40.0928C115.947 40.7184 115.869 40.7184 112.515 39.9024C107.796 38.7872 101.946 38.7056 97.4999 39.6576C89.2319 41.4528 82.9529 45.7776 80.1059 51.68C79.5209 52.8496 79.3649 53.9648 79.4039 56.848C79.4039 60.0576 79.5209 60.7648 80.3789 62.424C83.3819 68.2448 89.2709 72.3248 97.3829 74.2016C99.8789 74.7728 101.166 74.8816 104.52 74.8816C108.186 74.8816 109.044 74.8 112.71 73.9296C116.805 72.9504 116.805 72.9504 115.557 73.6848C113.802 74.6912 109.122 76.296 105.69 77.0304C103.311 77.5472 101.868 77.656 97.8899 77.656C90.7139 77.656 86.9699 76.8672 80.8469 74.0656C70.9799 69.5776 65.9879 60.9008 68.4839 52.5776C70.8629 44.4448 80.7299 38.0256 93.0929 36.448C96.0569 36.0672 102.921 36.3664 105.963 37.0192Z" fill="white"/>
<path d="M92.8979 58.1264L93.0149 66.504H101.4C109.044 66.504 109.785 66.4496 109.902 66.0416C110.019 65.6064 109.395 65.552 102.492 65.4976L94.9649 65.416L94.8479 57.5824L94.7699 49.776H93.7949H92.8199L92.8979 58.1264Z" fill="white"/>
<path d="M37.83 93.16V99.008H43.251C50.154 99.008 51.09 98.5184 44.382 98.4096L39.585 98.328L39.468 92.8064C39.39 87.5296 39.351 87.312 38.61 87.312C37.869 87.312 37.83 87.5024 37.83 93.16Z" fill="white"/>
<path d="M52.806 87.72C52.689 87.9376 52.65 89.9232 52.728 92.1264C52.845 95.744 52.923 96.2608 53.742 97.1584C55.887 99.5792 61.503 99.96 64.35 97.8656C65.988 96.696 66.3 95.608 66.3 91.1744C66.3 87.9104 66.222 87.312 65.715 87.312C65.208 87.312 65.13 87.9376 65.13 91.3104C65.091 97.0768 64.077 98.464 59.748 98.464C57.135 98.464 56.355 98.1648 55.38 96.832C54.717 95.9072 54.6 95.2272 54.6 91.528C54.6 87.4752 54.561 87.312 53.82 87.312C53.391 87.312 52.923 87.5024 52.806 87.72Z" fill="white"/>
<path d="M72.5399 93.1872C72.5399 97.7568 72.6569 99.0352 73.0469 98.9536C73.3979 98.8448 73.5539 97.5392 73.7099 94.0848L73.9049 89.352L76.1279 91.2832C77.3369 92.344 78.5849 93.3776 78.8579 93.5952C79.1309 93.8128 80.4959 94.9552 81.8999 96.152C84.9809 98.8176 85.2539 99.008 85.7609 99.008C86.0729 99.008 86.1899 97.1312 86.1899 93.1328C86.1899 88.5632 86.0729 87.2848 85.7219 87.3664C85.3319 87.4752 85.1759 88.7808 85.0199 92.208L84.8249 96.9136L79.2479 92.1264C76.1669 89.4608 73.4369 87.312 73.1249 87.312C72.6179 87.312 72.5399 88.2368 72.5399 93.1872Z" fill="white"/>
<path d="M94.653 92.9696C92.781 96.0704 91.26 98.7088 91.26 98.8176C91.26 98.9264 91.494 99.008 91.767 99.008C92.001 99.008 92.781 98.1104 93.405 97.0224L94.614 95.064L98.085 94.9824C100.035 94.9552 101.79 95.0096 102.024 95.1184C102.258 95.2544 102.882 96.1248 103.428 97.104C104.286 98.6272 104.598 98.872 105.495 98.9536C106.08 99.008 106.509 98.9264 106.431 98.7904C106.353 98.6272 104.715 95.9888 102.765 92.9152C100.308 88.9984 99.06 87.312 98.631 87.312C98.202 87.312 97.032 88.944 94.653 92.9696ZM100.035 91.5824C100.893 92.888 101.673 94.0304 101.712 94.1664C101.79 94.2752 100.347 94.384 98.475 94.384C95.901 94.384 95.121 94.3024 95.277 94.0304C97.071 90.8208 98.046 89.216 98.241 89.216C98.397 89.216 99.216 90.2768 100.035 91.5824Z" fill="white"/>
<path d="M111.267 87.7472C111.15 87.9648 111.15 89.3248 111.306 90.7392C111.579 93.2144 111.54 93.3504 110.799 93.4864C109.863 93.6496 109.707 94.112 110.565 94.112C111.033 94.112 111.15 94.5744 111.15 96.56C111.15 98.9808 111.15 99.008 112.125 99.008C113.1 99.008 113.1 98.9808 113.1 96.696C113.1 94.4928 113.139 94.384 114.036 94.2208C114.543 94.1392 115.518 94.112 116.259 94.1664C117.429 94.248 117.819 94.4928 119.847 96.6144C121.641 98.5456 122.304 99.008 123.045 99.008C123.942 99.008 123.903 98.9264 121.875 96.6416C120.705 95.336 119.73 94.1936 119.73 94.112C119.73 94.0032 120.159 93.7856 120.666 93.6224C122.733 92.9696 123.669 90.6576 122.499 89.1344C121.485 87.8288 119.457 87.312 115.284 87.312C112.242 87.312 111.462 87.3936 111.267 87.7472ZM119.613 88.5632C121.056 89.3248 121.524 90.304 121.056 91.5824C120.588 92.9968 118.833 93.5952 115.635 93.5136L113.295 93.432L113.178 91.0112C113.1 89.6784 113.178 88.4 113.295 88.1824C113.607 87.584 118.248 87.856 119.613 88.5632Z" fill="white"/>
<path d="M126.75 87.448C126.75 87.5568 127.257 88.128 127.881 88.7536C128.466 89.3792 129.87 90.9024 131.001 92.1536C132.99 94.4112 132.99 94.4384 132.99 96.7232C132.99 98.9808 132.99 99.008 133.965 99.008C134.94 99.008 134.94 98.9808 134.94 96.7776C134.94 94.3296 135.096 94.0576 139.152 89.6512C140.244 88.4544 141.063 87.4208 140.985 87.3664C140.478 87.0128 139.464 87.8288 137.319 90.4128C135.993 91.9904 134.745 93.3504 134.55 93.432C134.316 93.5136 133.497 92.8608 132.678 91.936C129.831 88.6448 128.505 87.448 127.608 87.3664C127.14 87.312 126.75 87.3392 126.75 87.448Z" fill="white"/>
<path d="M148.785 88.4544C145.743 93.296 142.428 98.872 142.545 98.9536C143.013 99.28 143.871 98.6272 144.456 97.4576C145.821 94.9008 145.782 94.928 149.916 94.928H153.582L154.869 96.968C155.961 98.7088 156.273 99.008 157.092 99.008C157.716 99.008 157.95 98.8992 157.833 98.6544C157.716 98.4912 156.078 95.8528 154.167 92.8064C151.788 88.9984 150.579 87.312 150.15 87.312C149.799 87.312 149.214 87.8016 148.785 88.4544ZM151.437 91.4736C152.217 92.8608 152.88 94.0848 152.88 94.1936C152.88 94.3024 151.476 94.384 149.76 94.384C148.044 94.384 146.64 94.3024 146.64 94.1936C146.64 93.7584 149.526 88.944 149.76 88.944C149.916 88.944 150.657 90.0864 151.437 91.4736Z" fill="white"/>
<path d="M109.2 105.4C109.2 105.618 109.473 105.808 109.785 105.808C110.097 105.808 110.37 105.618 110.37 105.4C110.37 105.182 110.097 104.992 109.785 104.992C109.473 104.992 109.2 105.182 109.2 105.4Z" fill="white"/>
<path d="M54.1319 105.427C53.9369 105.536 53.8199 106.896 53.8199 108.446C53.8199 110.758 53.9369 111.248 54.4049 111.248C54.7949 111.248 54.9899 110.949 54.9899 110.296C54.9899 109.398 55.0679 109.344 56.3549 109.344C57.4859 109.344 57.8759 109.507 58.5779 110.296C59.0849 110.813 59.7089 111.248 59.9819 111.248C60.6449 111.248 60.5669 111.058 59.6309 110.133L58.8509 109.344L59.6309 108.746C60.6449 108.011 60.6839 106.597 59.7479 105.998C58.9679 105.509 54.5999 105.074 54.1319 105.427ZM59.1239 106.542C59.8649 107.222 59.7869 107.63 58.8899 108.256C58.3829 108.61 57.6029 108.8 56.5499 108.8H54.9899V107.44V106.08H56.7839C58.0709 106.08 58.7729 106.216 59.1239 106.542Z" fill="white"/>
<path d="M101.946 105.618C101.556 106.379 101.985 111.058 102.492 111.194C102.804 111.248 102.96 110.922 102.96 110.051V108.8H105.105C106.743 108.8 107.25 108.718 107.25 108.392C107.25 108.066 106.743 107.984 105.105 107.984H102.96V107.032V106.08H105.3C106.899 106.08 107.64 105.971 107.64 105.726C107.64 105.237 102.219 105.128 101.946 105.618Z" fill="white"/>
<path d="M112.71 106.352C112.71 106.651 112.437 106.896 112.125 106.896C111.813 106.896 111.54 107.005 111.54 107.168C111.54 107.304 111.813 107.44 112.125 107.44C112.593 107.44 112.71 107.794 112.71 109.018C112.71 109.888 112.905 110.731 113.178 110.922C113.763 111.33 115.44 111.357 115.44 110.976C115.44 110.813 115.089 110.704 114.699 110.704C113.802 110.704 113.49 110.187 113.49 108.637C113.49 107.549 113.568 107.44 114.465 107.44C115.011 107.44 115.44 107.304 115.44 107.168C115.44 107.005 115.089 106.896 114.621 106.896C114.153 106.896 113.724 106.678 113.607 106.352C113.49 106.053 113.256 105.808 113.061 105.808C112.866 105.808 112.71 106.053 112.71 106.352Z" fill="white"/>
<path d="M63.063 107.222C62.244 107.685 61.581 108.936 61.893 109.534C62.907 111.602 66.378 111.846 67.782 109.97C68.484 109.072 68.328 108.419 67.275 107.603C66.222 106.814 64.194 106.651 63.063 107.222ZM66.378 107.902C67.782 108.773 66.846 110.704 65.013 110.704C63.102 110.704 62.088 108.963 63.453 107.93C64.233 107.331 65.442 107.304 66.378 107.902Z" fill="white"/>
<path d="M69.8099 108.61C69.8099 109.942 69.9659 110.459 70.5119 110.786C71.2919 111.302 72.8129 111.384 73.7099 110.976C74.0609 110.813 74.3729 110.84 74.5289 111.03C74.9579 111.52 75.6599 111.003 75.6599 110.187C75.6599 108.827 75.1529 106.896 74.8409 106.896C74.6459 106.896 74.4899 107.467 74.4899 108.202C74.4899 109.643 73.6709 110.704 72.5399 110.704C71.4089 110.704 70.5899 109.643 70.5899 108.202C70.5899 107.467 70.4339 106.896 70.1999 106.896C69.9659 106.896 69.8099 107.658 69.8099 108.61Z" fill="white"/>
<path d="M77.6879 109.834C77.7659 111.819 77.9609 112.744 78.3119 112.826C78.6239 112.88 78.7799 112.581 78.7799 111.765C78.7799 110.867 78.8969 110.677 79.2479 110.922C79.7939 111.302 81.6659 111.357 82.6799 110.976C83.8499 110.541 84.3179 109.181 83.6939 108.12C83.0699 107.086 82.4459 106.896 79.6379 106.95L77.5709 106.978L77.6879 109.834ZM82.5239 108.147C83.9279 109.616 81.3929 111.466 79.5599 110.296C78.5459 109.67 78.5069 108.12 79.4819 107.739C80.6519 107.25 81.8609 107.413 82.5239 108.147Z" fill="white"/>
<path d="M85.917 107.086C84.825 107.386 85.527 107.658 87.282 107.63C88.881 107.576 89.115 107.658 89.115 108.12C89.115 108.555 88.803 108.691 87.555 108.8C85.605 108.99 85.02 109.235 85.02 109.861C85.02 110.758 86.268 111.248 88.491 111.166L90.558 111.112L90.363 109.398C90.285 108.474 89.973 107.522 89.7 107.304C89.232 106.923 86.97 106.787 85.917 107.086ZM89.154 109.48C89.505 110.051 88.608 110.704 87.477 110.704C86.268 110.704 85.839 109.915 86.775 109.453C87.75 108.963 88.881 108.963 89.154 109.48Z" fill="white"/>
<path d="M92.4689 107.277C91.5329 108.066 92.1179 108.854 93.9119 109.29C95.1209 109.562 95.5499 109.806 95.4719 110.133C95.3549 110.486 94.9259 110.568 93.4049 110.514C91.6109 110.459 91.5329 110.486 92.1959 110.84C93.1319 111.357 95.1599 111.357 96.0959 110.894C96.5249 110.677 96.7589 110.269 96.6419 109.861C96.5639 109.371 96.1349 109.126 94.8869 108.854C93.6389 108.582 93.2099 108.338 93.2099 107.93C93.2099 107.44 93.4049 107.386 94.8089 107.522C95.9009 107.63 96.3299 107.576 96.2129 107.358C95.9789 106.842 93.0149 106.787 92.4689 107.277Z" fill="white"/>
<path d="M109.2 109.045C109.2 110.84 109.317 111.248 109.785 111.248C110.292 111.248 110.37 110.894 110.292 109.154C110.214 107.794 110.019 107.032 109.707 106.95C109.317 106.869 109.2 107.413 109.2 109.045Z" fill="white"/>
<path d="M117 109.126C117 110.84 117.117 111.248 117.585 111.248C118.014 111.248 118.17 110.894 118.17 109.779C118.17 108.229 118.794 107.44 120.042 107.44C121.407 107.44 121.836 107.93 121.992 109.589C122.226 111.765 122.85 111.71 122.85 109.534C122.85 107.277 122.304 106.896 119.223 106.95L117 107.005V109.126Z" fill="white"/>
<path d="M125.229 107.603C124.137 108.582 124.176 109.752 125.385 110.568C126.672 111.493 129.87 111.466 129.87 110.541C129.87 110.106 129.246 110.024 128.895 110.432C128.31 111.085 125.58 110.35 125.58 109.534C125.58 109.426 126.633 109.344 127.92 109.344C130.689 109.344 131.235 108.909 129.987 107.766C128.817 106.678 126.36 106.597 125.229 107.603ZM129.012 107.766C130.026 108.474 129.519 108.8 127.53 108.8C125.541 108.8 125.034 108.474 126.048 107.766C126.633 107.358 128.427 107.358 129.012 107.766Z" fill="white"/>
<path d="M132.249 107.277C131.313 108.066 131.898 108.854 133.692 109.29C134.901 109.562 135.33 109.806 135.252 110.133C135.135 110.459 134.706 110.568 133.185 110.514C131.391 110.486 131.313 110.514 131.976 110.867C133.068 111.411 135.096 111.357 135.837 110.758C137.163 109.725 136.5 109.099 133.653 108.664C132.873 108.555 132.6 108.365 132.678 108.038C132.795 107.685 133.224 107.576 134.472 107.603C136.617 107.63 136.461 107.059 134.277 106.95C133.263 106.896 132.561 107.005 132.249 107.277Z" fill="white"/>
<path d="M138.138 107.222C137.436 107.712 137.553 108.8 138.372 108.99C141.336 109.725 141.687 109.888 141.141 110.323C140.751 110.65 140.244 110.704 139.152 110.595C138.333 110.486 137.67 110.541 137.67 110.677C137.67 111.275 141.102 111.466 141.882 110.922C142.467 110.514 142.506 109.426 141.882 109.181C141.648 109.072 140.907 108.909 140.244 108.827C139.347 108.691 138.996 108.474 138.918 108.011C138.762 107.386 138.879 107.358 140.4 107.522C141.531 107.63 141.96 107.576 141.843 107.358C141.648 106.896 138.762 106.787 138.138 107.222Z" fill="white"/>
</svg>
