<?xml version="1.0" standalone="no"?>
<!DOCTYPE svg PUBLIC "-//W3C//DTD SVG 20010904//EN"
 "http://www.w3.org/TR/2001/REC-SVG-20010904/DTD/svg10.dtd">
<svg version="1.0" xmlns="http://www.w3.org/2000/svg"
 width="500.000000pt" height="500.000000pt" viewBox="0 0 500.000000 500.000000"
 preserveAspectRatio="xMidYMid meet">

<g transform="translate(0.000000,500.000000) scale(0.100000,-0.100000)"
fill="#000000" stroke="none">
<path d="M2300 3676 c-367 -98 -624 -456 -596 -829 9 -127 65 -283 140 -393
36 -54 150 -169 201 -204 74 -51 183 -100 267 -122 111 -28 329 -22 428 11
180 60 332 170 419 303 57 88 38 96 -43 20 -76 -70 -169 -125 -264 -155 -101
-32 -261 -29 -361 7 -211 75 -354 237 -411 465 -22 86 -25 156 -9 233 28 134
77 231 164 326 232 250 618 258 872 18 41 -38 77 -66 80 -62 26 26 -124 197
-242 275 -149 99 -260 131 -448 131 -84 -1 -133 -7 -197 -24z m417 -37 c75
-23 182 -76 228 -113 28 -23 26 -23 -60 7 -121 41 -271 44 -385 9 -212 -66
-373 -225 -446 -442 -15 -43 -19 -84 -18 -190 0 -118 3 -144 25 -205 77 -214
228 -364 436 -433 64 -21 97 -25 183 -25 94 0 116 3 210 35 105 36 105 36 73
9 -45 -37 -165 -96 -253 -123 -61 -19 -98 -23 -200 -23 -184 0 -280 29 -437
132 -253 165 -381 484 -317 790 61 299 314 535 631 593 76 14 252 3 330 -21z"/>
<path d="M2382 2863 l3 -308 215 0 c196 0 215 2 218 17 3 16 -13 18 -190 20
l-193 3 -3 288 -2 287 -25 0 -25 0 2 -307z"/>
<path d="M970 1575 l0 -215 139 0 c177 0 201 18 29 22 l-123 3 -3 203 c-2 194
-3 202 -22 202 -19 0 -20 -7 -20 -215z"/>
<path d="M1354 1775 c-3 -8 -4 -81 -2 -162 3 -133 5 -152 26 -185 55 -89 199
-103 272 -26 42 43 50 83 50 246 0 120 -2 142 -15 142 -13 0 -15 -23 -15 -147
-1 -212 -27 -263 -138 -263 -67 0 -87 11 -112 60 -17 34 -20 59 -20 195 0 149
-1 155 -20 155 -11 0 -23 -7 -26 -15z"/>
<path d="M1860 1574 c0 -168 3 -215 13 -212 9 4 13 52 17 179 l5 174 57 -71
c31 -39 63 -77 70 -85 7 -8 42 -50 78 -94 79 -98 86 -105 99 -105 8 0 11 69
11 216 0 168 -3 215 -12 212 -10 -4 -14 -52 -18 -178 l-5 -173 -143 176 c-79
98 -149 177 -157 177 -13 0 -15 -34 -15 -216z"/>
<path d="M2427 1582 c-48 -114 -87 -211 -87 -215 0 -4 6 -7 13 -7 6 0 26 33
42 73 l31 72 89 3 c50 1 95 -1 101 -5 6 -5 22 -37 36 -73 22 -56 30 -65 53
-68 15 -2 26 1 24 6 -2 6 -44 103 -94 216 -63 144 -95 206 -106 206 -11 0 -41
-60 -102 -208z m138 51 c22 -48 42 -90 43 -95 2 -4 -35 -8 -83 -8 -66 0 -86 3
-82 13 46 118 71 177 76 177 4 0 25 -39 46 -87z"/>
<path d="M2853 1774 c-3 -8 -3 -58 1 -110 7 -91 6 -96 -13 -101 -24 -6 -28
-23 -6 -23 12 0 15 -17 15 -90 0 -89 0 -90 25 -90 25 0 25 1 25 85 0 81 1 85
24 91 13 3 38 4 57 2 30 -3 40 -12 92 -90 46 -71 63 -88 82 -88 23 0 22 3 -30
87 -30 48 -55 90 -55 93 0 4 11 12 24 18 53 24 77 109 47 165 -26 48 -78 67
-185 67 -78 0 -98 -3 -103 -16z m214 -30 c37 -28 49 -64 37 -111 -12 -52 -57
-74 -139 -71 l-60 3 -3 89 c-2 49 0 96 3 104 8 22 127 12 162 -14z"/>
<path d="M3250 1785 c0 -4 13 -25 29 -48 15 -23 51 -79 80 -125 51 -83 51 -84
51 -168 0 -83 0 -84 25 -84 25 0 25 1 25 82 0 90 4 100 108 262 28 44 49 82
47 84 -13 13 -39 -17 -94 -112 -34 -58 -66 -108 -71 -111 -6 -3 -27 21 -48 55
-73 121 -107 165 -130 168 -12 2 -22 1 -22 -3z"/>
<path d="M3815 1748 c-78 -178 -163 -383 -160 -386 12 -12 34 12 49 55 35 94
34 93 140 93 l94 0 33 -75 c28 -64 36 -75 57 -75 16 0 22 4 19 13 -3 6 -45
103 -94 215 -61 140 -92 202 -103 202 -9 0 -24 -18 -35 -42z m68 -111 c20 -51
37 -96 37 -100 0 -4 -36 -7 -80 -7 -44 0 -80 3 -80 7 0 16 74 193 80 193 4 0
23 -42 43 -93z"/>
<path d="M2800 1125 c0 -8 7 -15 15 -15 8 0 15 7 15 15 0 8 -7 15 -15 15 -8 0
-15 -7 -15 -15z"/>
<path d="M1388 1124 c-5 -4 -8 -54 -8 -111 0 -85 3 -103 15 -103 10 0 15 11
15 35 0 33 2 35 35 35 29 0 39 -6 57 -35 13 -19 29 -35 36 -35 17 0 15 7 -9
41 l-20 29 20 22 c26 27 27 79 3 101 -20 18 -132 34 -144 21z m128 -41 c19
-25 17 -40 -6 -63 -13 -13 -33 -20 -60 -20 l-40 0 0 50 0 50 46 0 c33 0 51 -5
60 -17z"/>
<path d="M2614 1117 c-10 -28 1 -200 14 -205 8 -2 12 10 12 42 l0 46 55 0 c42
0 55 3 55 15 0 12 -13 15 -55 15 l-55 0 0 35 0 35 60 0 c41 0 60 4 60 13 0 18
-139 22 -146 4z"/>
<path d="M2890 1090 c0 -11 -7 -20 -15 -20 -8 0 -15 -4 -15 -10 0 -5 7 -10 15
-10 12 0 15 -13 15 -58 0 -32 5 -63 12 -70 15 -15 58 -16 58 -2 0 6 -9 10 -19
10 -23 0 -31 19 -31 76 0 40 2 44 25 44 14 0 25 5 25 10 0 6 -9 10 -21 10 -12
0 -23 8 -26 20 -3 11 -9 20 -14 20 -5 0 -9 -9 -9 -20z"/>
<path d="M1617 1058 c-21 -17 -38 -63 -30 -85 26 -76 115 -85 151 -16 18 33
14 57 -13 87 -27 29 -79 35 -108 14z m85 -25 c36 -32 12 -103 -35 -103 -49 0
-75 64 -40 102 20 22 51 23 75 1z"/>
<path d="M1790 1007 c0 -49 4 -68 18 -80 20 -19 59 -22 82 -7 9 6 17 5 21 -2
11 -18 29 1 29 31 0 50 -13 121 -21 121 -5 0 -9 -21 -9 -48 0 -53 -21 -92 -50
-92 -29 0 -50 39 -50 92 0 27 -4 48 -10 48 -6 0 -10 -28 -10 -63z"/>
<path d="M1992 962 c2 -73 7 -107 16 -110 8 -2 12 9 12 39 0 33 3 40 12 31 14
-14 62 -16 88 -2 30 16 42 66 26 105 -16 38 -32 45 -104 43 l-53 -1 3 -105z
m124 62 c36 -54 -29 -122 -76 -79 -26 23 -27 80 -2 94 30 18 61 12 78 -15z"/>
<path d="M2203 1063 c-28 -11 -10 -21 35 -20 41 2 47 -1 47 -18 0 -16 -8 -21
-40 -25 -50 -7 -65 -16 -65 -39 0 -33 32 -51 89 -48 l53 2 -5 63 c-2 34 -10
69 -17 77 -12 14 -70 19 -97 8z m83 -88 c9 -21 -14 -45 -43 -45 -31 0 -42 29
-18 46 25 18 54 18 61 -1z"/>
<path d="M2371 1056 c-24 -29 -9 -58 37 -74 31 -10 42 -19 40 -31 -3 -13 -14
-16 -53 -14 -46 2 -48 1 -31 -12 24 -19 76 -19 100 -2 11 8 17 23 14 38 -2 18
-13 27 -45 37 -32 10 -43 19 -43 34 0 18 5 20 41 15 28 -4 39 -2 36 6 -6 19
-82 21 -96 3z"/>
<path d="M2800 991 c0 -66 3 -81 15 -81 13 0 15 13 13 77 -2 50 -7 78 -15 81
-10 3 -13 -17 -13 -77z"/>
<path d="M3000 988 c0 -63 3 -78 15 -78 11 0 15 13 15 54 0 57 16 86 48 86 35
0 46 -18 50 -79 6 -80 22 -78 22 2 0 83 -14 97 -93 95 l-57 -2 0 -78z"/>
<path d="M3211 1044 c-28 -36 -27 -79 4 -109 33 -34 115 -33 115 1 0 16 -16
19 -25 4 -15 -24 -85 3 -85 33 0 4 27 7 60 7 71 0 85 16 53 58 -30 40 -93 43
-122 6z m97 -6 c26 -26 13 -38 -38 -38 -51 0 -64 12 -38 38 15 15 61 15 76 0z"/>
<path d="M3391 1056 c-24 -29 -9 -58 37 -74 31 -10 42 -19 40 -31 -3 -12 -14
-16 -53 -14 -46 1 -48 0 -31 -13 28 -20 80 -18 99 4 34 38 17 61 -56 77 -20 4
-27 11 -25 23 3 13 14 17 46 16 55 -1 51 20 -5 24 -26 2 -44 -2 -52 -12z"/>
<path d="M3542 1058 c-18 -18 -15 -58 6 -65 76 -27 85 -33 71 -49 -10 -12 -23
-14 -51 -10 -21 4 -38 2 -38 -3 0 -22 88 -29 108 -9 15 15 16 55 0 64 -6 4
-25 10 -42 13 -23 5 -32 13 -34 30 -4 23 -1 24 38 18 29 -4 40 -2 37 6 -5 17
-79 21 -95 5z"/>
</g>
</svg>
